<?xml version="1.0" encoding="UTF-8"?>
<!-- Generator: visioncortex VTracer 0.6.5 -->
<svg version="1.1" xmlns="http://www.w3.org/2000/svg" width="2523" height="1525">
<path d="M0,0 L49,0 L80,3 L105,7 L135,14 L162,22 L190,32 L217,44 L245,58 L262,68 L280,81 L291,89 L307,102 L320,114 L343,137 L350,145 L362,160 L371,172 L381,186 L384,189 L392,153 L400,109 L401,101 L401,89 L398,79 L394,71 L389,65 L379,58 L366,54 L354,53 L347,56 L346,60 L349,65 L349,75 L345,80 L338,83 L327,82 L319,77 L315,72 L313,66 L313,53 L317,43 L324,35 L336,29 L352,26 L558,26 L615,27 L630,42 L638,49 L653,63 L670,79 L678,86 L688,95 L689,99 L682,108 L675,122 L672,134 L671,141 L671,177 L675,212 L682,255 L682,260 L684,260 L685,252 L693,220 L704,187 L712,167 L720,151 L728,135 L741,114 L755,95 L766,82 L773,74 L786,61 L797,52 L811,41 L827,32 L847,23 L870,17 L885,15 L910,15 L933,19 L950,24 L967,31 L984,41 L998,52 L1012,66 L1015,69 L1016,43 L1019,35 L1026,27 L1029,25 L1038,25 L1061,27 L1095,28 L1215,28 L1428,29 L1496,29 L1516,30 L1529,42 L1541,54 L1549,61 L1562,74 L1567,79 L1568,81 L1562,98 L1559,112 L1555,140 L1554,151 L1554,706 L1561,727 L1562,729 L1568,720 L1574,705 L1578,686 L1580,665 L1581,414 L1581,107 L1578,91 L1573,77 L1565,65 L1553,51 L1542,40 L1542,33 L1544,31 L1558,30 L1728,30 L1736,37 L1745,47 L1770,72 L1772,73 L1773,66 L1779,39 L1783,32 L1785,31 L1928,31 L2194,32 L2210,33 L2226,37 L2238,42 L2251,51 L2264,64 L2273,75 L2284,89 L2293,104 L2299,118 L2302,129 L2303,136 L2303,150 L2300,163 L2293,175 L2286,182 L2278,186 L2270,188 L2260,188 L2253,181 L2246,173 L2237,163 L2227,155 L2215,148 L2204,144 L2192,144 L2184,149 L2183,151 L2182,163 L2181,233 L2198,228 L2215,218 L2219,216 L2227,223 L2240,237 L2249,248 L2257,257 L2267,271 L2264,280 L2255,303 L2249,319 L2234,357 L2231,361 L2226,362 L2219,355 L2205,345 L2197,341 L2181,338 L2181,401 L2182,681 L2187,684 L2196,683 L2202,679 L2204,679 L2206,674 L2209,667 L2210,662 L2210,652 L2204,642 L2202,640 L2202,633 L2207,627 L2215,623 L2219,622 L2232,622 L2243,626 L2253,632 L2267,643 L2280,656 L2291,672 L2298,687 L2302,702 L2303,708 L2303,726 L2300,741 L2295,754 L2289,764 L2280,775 L2270,783 L2254,791 L2238,796 L2223,798 L2032,798 L2020,787 L2015,784 L2021,791 L2025,796 L2025,798 L1913,798 L1807,797 L1792,783 L1763,754 L1755,747 L1751,744 L1751,742 L1747,740 L1744,737 L1745,732 L1754,722 L1763,708 L1769,692 L1773,673 L1774,664 L1775,640 L1776,542 L1770,540 L1758,534 L1748,527 L1734,517 L1727,512 L1727,510 L1723,508 L1717,503 L1712,498 L1708,493 L1707,495 L1707,664 L1709,700 L1712,717 L1718,733 L1723,742 L1730,752 L1739,762 L1743,767 L1751,774 L1765,788 L1772,794 L1772,796 L1614,796 L1601,783 L1596,778 L1582,764 L1581,763 L1590,776 L1598,786 L1604,794 L1604,796 L1403,796 L1392,787 L1382,777 L1380,776 L1380,774 L1376,772 L1369,765 L1360,758 L1348,747 L1337,738 L1335,734 L1346,715 L1351,700 L1354,685 L1356,668 L1357,653 L1358,557 L1358,516 L1359,258 L1359,136 L1357,136 L1349,144 L1339,151 L1323,158 L1306,163 L1301,163 L1301,216 L1300,431 L1300,664 L1301,703 L1304,718 L1309,731 L1316,743 L1324,753 L1331,761 L1339,768 L1354,783 L1362,790 L1364,792 L1364,795 L1143,795 L1141,794 L1141,792 L1139,792 L1139,790 L1137,790 L1137,788 L1135,788 L1135,786 L1133,786 L1133,784 L1131,784 L1131,782 L1129,782 L1129,780 L1127,780 L1127,778 L1125,778 L1125,776 L1123,776 L1123,774 L1121,774 L1121,772 L1119,772 L1119,770 L1117,770 L1117,768 L1115,768 L1115,766 L1113,766 L1109,761 L1107,760 L1107,758 L1105,758 L1105,756 L1103,756 L1103,754 L1099,752 L1092,745 L1090,744 L1090,742 L1086,740 L1085,737 L1083,736 L1094,722 L1100,712 L1105,700 L1109,680 L1110,669 L1111,646 L1112,536 L1113,238 L1113,215 L1114,174 L1095,181 L1083,188 L1071,199 L1069,202 L1065,200 L1054,189 L1051,186 L1051,184 L1047,182 L1043,179 L1031,190 L1021,197 L1013,201 L1003,201 L977,175 L975,174 L975,172 L971,170 L962,161 L955,155 L953,147 L949,142 L942,139 L930,140 L918,146 L912,151 L902,164 L891,182 L881,201 L872,225 L866,243 L866,245 L970,245 L1007,246 L1013,251 L1013,253 L1015,253 L1015,255 L1019,257 L1037,275 L1045,282 L1061,297 L1064,299 L1064,301 L1066,301 L1073,309 L1075,313 L1068,329 L1063,352 L1062,364 L1061,575 L1061,714 L1063,724 L1067,734 L1076,747 L1085,757 L1090,762 L1090,764 L1093,765 L1099,772 L1107,779 L1114,786 L1121,792 L1120,795 L1022,795 L999,793 L974,789 L943,782 L919,774 L895,764 L878,755 L857,741 L840,729 L826,718 L816,710 L806,701 L804,700 L804,698 L800,696 L788,684 L787,683 L799,703 L809,716 L821,730 L832,742 L851,761 L859,768 L872,780 L881,788 L881,790 L883,790 L883,792 L880,793 L616,793 L607,787 L607,785 L602,783 L584,769 L574,761 L561,751 L549,742 L547,740 L549,731 L553,717 L554,710 L554,689 L551,667 L544,634 L542,625 L503,625 L464,630 L448,634 L450,648 L454,667 L462,693 L473,721 L482,740 L495,763 L506,780 L515,792 L529,806 L537,813 L550,825 L563,838 L573,851 L585,869 L596,887 L609,915 L617,939 L622,962 L624,976 L625,986 L625,1023 L622,1052 L616,1080 L609,1100 L597,1127 L585,1149 L575,1163 L564,1176 L557,1184 L541,1200 L527,1211 L516,1219 L494,1232 L484,1240 L475,1249 L466,1260 L456,1271 L449,1271 L444,1266 L445,1260 L452,1254 L460,1247 L434,1253 L422,1255 L394,1256 L370,1254 L351,1250 L331,1243 L314,1235 L297,1223 L285,1212 L273,1199 L264,1186 L256,1170 L252,1155 L251,1149 L251,1119 L255,1099 L259,1089 L268,1073 L280,1060 L293,1051 L303,1046 L312,1043 L318,1042 L341,1042 L356,1046 L367,1052 L376,1059 L384,1068 L391,1082 L394,1094 L394,1115 L390,1128 L384,1138 L377,1145 L365,1153 L355,1156 L348,1157 L339,1157 L330,1154 L324,1150 L329,1160 L335,1167 L345,1173 L358,1176 L378,1176 L390,1173 L403,1166 L413,1157 L419,1149 L427,1133 L432,1116 L434,1102 L434,1093 L432,1080 L428,1066 L422,1052 L415,1042 L407,1032 L392,1021 L377,1014 L356,1009 L331,1006 L330,1005 L329,985 L326,965 L322,952 L317,940 L308,926 L296,909 L287,898 L282,892 L282,890 L280,890 L271,879 L261,868 L254,860 L213,819 L205,812 L193,801 L182,792 L169,781 L153,769 L134,755 L117,743 L113,741 L113,864 L112,894 L112,993 L114,1018 L120,1049 L127,1074 L134,1090 L144,1108 L153,1119 L166,1133 L172,1140 L184,1149 L199,1159 L205,1166 L214,1188 L223,1207 L228,1216 L227,1219 L191,1232 L180,1237 L147,1251 L126,1261 L107,1271 L92,1279 L80,1285 L61,1296 L39,1309 L15,1324 L-8,1339 L-20,1347 L-39,1361 L-52,1371 L-62,1379 L-75,1390 L-83,1397 L-98,1411 L-101,1412 L-101,1414 L-109,1421 L-120,1432 L-127,1436 L-134,1435 L-169,1418 L-186,1410 L-194,1407 L-209,1400 L-219,1394 L-220,1376 L-206,1357 L-195,1340 L-183,1319 L-175,1303 L-169,1289 L-163,1270 L-156,1240 L-152,1214 L-150,1194 L-148,1156 L-147,1125 L-146,1046 L-145,655 L-143,257 L-143,123 L-144,113 L-151,105 L-170,91 L-184,80 L-197,68 L-199,64 L-198,58 L-191,52 L-162,39 L-133,28 L-109,20 L-87,14 L-57,7 L-24,2 Z M1982,78 L1978,87 L1974,109 L1973,130 L1972,137 L1971,259 L1971,681 L1972,706 L1973,721 L1975,727 L1979,728 L1984,722 L1989,713 L1994,699 L1997,682 L1998,662 L1998,389 L1999,257 L1999,127 L1998,111 L1994,94 L1986,78 Z M118,218 L114,222 L113,254 L114,302 L113,443 L114,454 L113,459 L115,462 L121,458 L125,452 L127,448 L129,448 L142,431 L155,407 L160,395 L163,386 L167,369 L171,342 L171,302 L168,284 L162,266 L154,250 L144,237 L141,234 L139,234 L137,230 L125,221 Z M856,278 L854,284 L849,328 L847,358 L847,409 L849,438 L854,471 L856,474 L856,482 L859,494 L861,495 L861,431 L862,337 L863,299 L859,282 Z M479,339 L476,347 L469,375 L461,412 L455,446 L449,488 L448,506 L453,507 L469,502 L485,494 L497,486 L502,482 L506,473 L505,460 L500,434 L498,426 L485,361 L482,348 L480,339 Z " fill="#97673D" transform="translate(220,0)"/>
<path d="M0,0 L49,0 L80,3 L105,7 L135,14 L162,22 L190,32 L217,44 L245,58 L262,68 L280,81 L291,89 L307,102 L320,114 L343,137 L350,145 L362,160 L371,172 L381,186 L384,189 L392,153 L400,109 L401,101 L401,89 L398,79 L394,71 L389,65 L379,58 L366,54 L354,53 L347,56 L346,60 L349,65 L349,75 L345,80 L338,83 L327,82 L319,77 L315,72 L313,66 L313,53 L317,43 L324,35 L336,29 L352,26 L558,26 L615,27 L630,42 L638,49 L653,63 L670,79 L678,86 L688,95 L689,99 L682,108 L675,122 L672,134 L671,141 L671,177 L675,212 L682,255 L682,260 L684,260 L685,252 L693,220 L704,187 L712,167 L720,151 L728,135 L741,114 L755,95 L766,82 L773,74 L786,61 L797,52 L811,41 L827,32 L847,23 L870,17 L885,15 L910,15 L928,18 L933,26 L935,31 L921,30 L902,30 L904,32 L903,34 L876,34 L855,39 L836,47 L818,58 L806,67 L796,76 L794,76 L794,78 L786,85 L775,97 L762,114 L752,129 L738,153 L726,178 L718,199 L709,225 L706,234 L700,260 L692,300 L688,333 L687,353 L687,390 L689,419 L694,454 L702,490 L708,514 L718,544 L729,570 L740,592 L756,619 L764,630 L776,646 L783,654 L783,656 L785,656 L792,664 L799,670 L799,672 L803,674 L810,681 L815,686 L815,688 L818,689 L821,692 L821,694 L825,696 L835,704 L835,706 L839,708 L845,717 L859,734 L871,747 L878,752 L877,754 L861,744 L843,731 L831,722 L817,711 L806,701 L804,700 L804,698 L800,696 L788,684 L787,683 L799,703 L809,716 L821,730 L832,742 L851,761 L859,768 L872,780 L881,788 L881,790 L883,790 L883,792 L880,793 L616,793 L607,787 L607,785 L602,783 L584,769 L574,761 L561,751 L549,742 L547,740 L549,731 L553,717 L554,710 L554,689 L551,667 L544,634 L542,625 L503,625 L464,630 L448,634 L450,648 L454,667 L462,693 L473,721 L482,740 L495,763 L506,780 L515,792 L529,806 L537,813 L550,825 L563,838 L573,851 L585,869 L596,887 L609,915 L617,939 L622,962 L624,976 L625,986 L625,1023 L622,1052 L616,1080 L609,1100 L597,1127 L585,1149 L575,1163 L564,1176 L557,1184 L541,1200 L527,1211 L516,1219 L494,1232 L484,1240 L475,1249 L466,1260 L456,1271 L449,1271 L444,1266 L445,1260 L452,1254 L460,1247 L434,1253 L422,1255 L394,1256 L370,1254 L351,1250 L331,1243 L314,1235 L297,1223 L285,1212 L273,1199 L264,1186 L256,1170 L252,1155 L251,1149 L251,1119 L255,1099 L259,1089 L268,1073 L280,1060 L293,1051 L303,1046 L312,1043 L318,1042 L341,1042 L356,1046 L367,1052 L376,1059 L384,1068 L391,1082 L394,1094 L394,1115 L390,1128 L384,1138 L377,1145 L365,1153 L355,1156 L348,1157 L339,1157 L330,1154 L324,1150 L329,1160 L335,1167 L345,1173 L358,1176 L378,1176 L390,1173 L403,1166 L413,1157 L419,1149 L427,1133 L432,1116 L434,1102 L434,1093 L432,1080 L428,1066 L422,1052 L415,1042 L407,1032 L392,1021 L377,1014 L356,1009 L331,1006 L330,1005 L329,985 L326,965 L322,952 L317,940 L308,926 L296,909 L287,898 L282,892 L282,890 L280,890 L271,879 L261,868 L254,860 L213,819 L205,812 L193,801 L182,792 L169,781 L153,769 L134,755 L117,743 L113,741 L113,864 L112,894 L112,993 L114,1018 L120,1049 L127,1074 L134,1090 L144,1108 L153,1119 L166,1133 L172,1140 L184,1149 L199,1159 L205,1166 L214,1188 L223,1207 L228,1216 L227,1219 L191,1232 L180,1237 L147,1251 L126,1261 L107,1271 L92,1279 L80,1285 L61,1296 L39,1309 L15,1324 L-8,1339 L-20,1347 L-39,1361 L-52,1371 L-62,1379 L-75,1390 L-83,1397 L-98,1411 L-101,1412 L-101,1414 L-109,1421 L-120,1432 L-127,1436 L-134,1435 L-169,1418 L-186,1410 L-194,1407 L-209,1400 L-219,1394 L-220,1376 L-206,1357 L-195,1340 L-183,1319 L-175,1303 L-169,1289 L-163,1270 L-156,1240 L-152,1214 L-150,1194 L-148,1156 L-147,1125 L-146,1046 L-145,655 L-143,257 L-143,123 L-144,113 L-151,105 L-170,91 L-184,80 L-197,68 L-199,64 L-198,58 L-191,52 L-162,39 L-133,28 L-109,20 L-87,14 L-57,7 L-24,2 Z M118,218 L114,222 L113,254 L114,302 L113,443 L114,454 L113,459 L115,462 L121,458 L125,452 L127,448 L129,448 L142,431 L155,407 L160,395 L163,386 L167,369 L171,342 L171,302 L168,284 L162,266 L154,250 L144,237 L141,234 L139,234 L137,230 L125,221 Z M479,339 L476,347 L469,375 L461,412 L455,446 L449,488 L448,506 L453,507 L469,502 L485,494 L497,486 L502,482 L506,473 L505,460 L500,434 L498,426 L485,361 L482,348 L480,339 Z " fill="#B6854D" transform="translate(220,0)"/>
<path d="M0,0 L34,0 L53,1 L76,4 L98,8 L130,17 L130,19 L137,20 L151,27 L163,32 L177,40 L187,47 L201,57 L215,69 L227,80 L242,95 L251,106 L263,122 L275,140 L287,162 L297,185 L309,221 L315,248 L318,268 L320,291 L320,330 L318,356 L315,373 L312,390 L304,421 L296,442 L289,458 L276,481 L265,497 L256,508 L247,518 L235,530 L224,539 L213,548 L192,562 L171,574 L148,585 L123,595 L105,601 L103,601 L103,603 L112,605 L145,616 L181,630 L196,637 L211,644 L228,652 L247,662 L268,674 L286,685 L293,690 L302,695 L316,705 L329,714 L347,727 L364,740 L382,754 L395,765 L405,773 L419,785 L430,794 L440,803 L448,810 L453,814 L453,816 L457,818 L479,840 L488,851 L498,863 L508,878 L517,893 L528,918 L535,941 L539,961 L540,969 L540,1010 L537,1028 L534,1043 L529,1059 L521,1079 L510,1099 L499,1115 L488,1128 L481,1136 L468,1148 L454,1158 L438,1167 L424,1173 L406,1179 L388,1182 L360,1182 L343,1178 L327,1171 L317,1165 L307,1157 L300,1150 L290,1135 L283,1118 L281,1106 L281,1090 L284,1076 L289,1064 L296,1055 L303,1048 L311,1043 L320,1040 L339,1040 L349,1044 L351,1048 L353,1048 L359,1057 L362,1064 L362,1078 L359,1086 L353,1094 L347,1098 L338,1100 L333,1100 L327,1093 L320,1094 L315,1099 L313,1105 L313,1114 L317,1126 L323,1136 L331,1144 L344,1152 L359,1157 L381,1157 L396,1153 L408,1148 L420,1141 L423,1138 L425,1138 L425,1136 L427,1136 L427,1134 L429,1134 L431,1130 L438,1122 L448,1105 L454,1090 L459,1067 L460,1060 L460,1044 L459,1034 L467,1036 L476,1036 L486,1031 L492,1026 L498,1018 L506,1002 L511,986 L513,974 L513,954 L510,935 L507,926 L506,966 L502,983 L497,994 L490,1005 L481,1013 L476,1015 L468,1015 L462,1012 L457,1006 L456,1004 L456,997 L462,986 L464,983 L456,982 L446,978 L439,970 L436,962 L436,959 L442,955 L446,946 L448,938 L448,918 L445,901 L440,889 L431,873 L427,868 L432,878 L435,892 L436,899 L436,914 L433,926 L425,942 L417,951 L405,959 L398,961 L381,961 L371,958 L368,956 L370,949 L370,940 L365,927 L351,906 L337,887 L326,873 L313,857 L300,842 L289,830 L282,822 L245,785 L237,778 L224,766 L210,754 L199,745 L182,731 L162,716 L147,705 L130,693 L113,681 L98,671 L85,663 L67,653 L39,641 L26,636 L26,1034 L29,1062 L35,1084 L44,1104 L54,1121 L64,1134 L71,1143 L70,1147 L54,1155 L19,1172 L-3,1184 L-26,1197 L-50,1212 L-71,1226 L-90,1240 L-107,1254 L-118,1263 L-134,1278 L-146,1290 L-154,1303 L-162,1318 L-166,1316 L-169,1313 L-167,1307 L-159,1292 L-151,1272 L-143,1247 L-139,1232 L-134,1207 L-130,1178 L-127,1138 L-126,1078 L-125,704 L-124,437 L-124,71 L-130,63 L-144,49 L-154,41 L-151,38 L-132,30 L-96,18 L-76,12 L-49,6 L-23,2 L-5,1 Z M122,188 L118,192 L117,224 L118,272 L117,413 L118,424 L117,429 L119,432 L125,428 L129,422 L131,418 L133,418 L146,401 L159,377 L164,365 L167,356 L171,339 L175,312 L175,272 L172,254 L166,236 L158,220 L148,207 L145,204 L143,204 L141,200 L129,191 Z " fill="#223153" transform="translate(216,30)"/>
<path d="M0,0 L9,1 L25,6 L39,12 L56,22 L70,33 L84,47 L87,51 L87,128 L99,116 L104,111 L113,99 L120,93 L131,88 L143,85 L152,84 L198,84 L198,313 L197,582 L196,630 L193,671 L189,687 L182,703 L175,715 L181,715 L181,717 L186,718 L197,722 L198,723 L336,723 L327,704 L320,685 L316,669 L314,654 L313,639 L313,561 L315,95 L316,94 L365,94 L377,92 L388,88 L398,82 L408,73 L413,66 L419,51 L421,40 L423,40 L428,51 L430,61 L431,79 L431,113 L428,118 L421,125 L411,132 L395,139 L378,144 L373,144 L373,197 L372,412 L372,645 L373,684 L376,699 L381,712 L388,724 L396,734 L403,742 L411,749 L426,764 L434,771 L436,773 L436,776 L215,776 L213,775 L213,773 L211,773 L211,771 L209,771 L209,769 L207,769 L207,767 L205,767 L205,765 L203,765 L203,763 L201,763 L201,761 L199,761 L199,759 L197,759 L197,757 L195,757 L195,755 L193,755 L193,753 L191,753 L191,751 L189,751 L189,749 L187,749 L187,747 L185,747 L181,742 L179,741 L179,739 L177,739 L177,737 L175,737 L175,735 L171,733 L164,726 L162,725 L162,723 L158,721 L157,718 L155,717 L166,703 L172,693 L177,681 L181,661 L182,650 L183,627 L184,517 L185,219 L185,196 L186,155 L167,162 L155,169 L143,180 L141,183 L137,181 L126,170 L123,167 L123,165 L119,163 L115,160 L103,171 L93,178 L85,182 L75,182 L49,156 L47,155 L47,153 L43,151 L34,142 L27,136 L25,128 L21,123 L14,120 L2,121 L-10,127 L-16,132 L-26,145 L-37,163 L-47,182 L-56,206 L-62,224 L-62,226 L42,226 L79,227 L85,232 L85,234 L87,234 L87,236 L91,238 L109,256 L117,263 L133,278 L136,280 L136,282 L138,282 L145,290 L147,294 L140,310 L135,333 L134,345 L133,556 L133,695 L135,705 L139,715 L148,728 L157,738 L162,743 L162,745 L165,746 L171,753 L179,760 L186,767 L193,773 L192,776 L94,776 L71,774 L46,770 L15,763 L-9,755 L-33,745 L-50,736 L-52,732 L-60,726 L-73,712 L-84,698 L-91,688 L-93,687 L-93,685 L-97,683 L-107,675 L-107,673 L-110,672 L-113,669 L-113,667 L-117,665 L-126,655 L-129,653 L-129,651 L-133,649 L-143,639 L-143,637 L-145,637 L-154,626 L-165,611 L-175,597 L-187,576 L-199,553 L-209,530 L-216,510 L-222,491 L-230,459 L-235,435 L-240,400 L-242,371 L-242,334 L-241,314 L-237,281 L-229,241 L-225,224 L-221,209 L-214,188 L-207,169 L-196,144 L-186,125 L-172,102 L-160,86 L-151,75 L-137,60 L-134,59 L-134,57 L-123,48 L-113,40 L-95,29 L-81,22 L-66,17 L-52,14 L-27,14 L-25,15 L-25,13 L-32,12 L-32,11 L-26,10 L-7,10 L6,11 Z M-72,259 L-74,265 L-79,309 L-81,339 L-81,390 L-79,419 L-74,452 L-72,455 L-72,463 L-69,475 L-67,476 L-67,412 L-66,318 L-65,280 L-69,263 Z " fill="#794A24" transform="translate(1148,19)"/>
<path d="M0,0 L9,0 L32,2 L66,3 L186,3 L399,4 L467,4 L487,5 L500,17 L512,29 L520,36 L533,49 L538,54 L539,56 L533,73 L530,87 L526,115 L525,126 L525,681 L532,702 L533,709 L539,719 L546,731 L554,741 L564,755 L575,769 L575,771 L374,771 L363,762 L353,752 L351,751 L351,749 L347,747 L340,740 L331,733 L319,722 L308,713 L306,709 L317,690 L322,675 L325,660 L327,643 L328,628 L329,532 L329,491 L330,233 L330,111 L329,107 L329,73 L328,55 L325,42 L322,36 L322,34 L320,34 L320,41 L315,56 L308,67 L300,75 L289,82 L279,86 L272,88 L264,89 L215,89 L213,577 L213,633 L215,657 L219,675 L225,693 L235,715 L235,718 L97,718 L88,714 L80,711 L80,709 L74,709 L76,703 L83,691 L89,675 L91,665 L94,624 L95,576 L97,78 L51,79 L38,81 L25,85 L15,91 L8,99 L2,107 L-3,112 L-14,123 L-15,123 L-15,101 L-14,43 L-13,18 L-10,10 L-3,2 Z " fill="#9B5F3B" transform="translate(1249,25)"/>
<path d="M0,0 L202,0 L205,2 L194,13 L187,25 L183,38 L182,43 L182,85 L184,114 L189,154 L195,190 L201,228 L211,282 L218,318 L223,342 L230,377 L233,389 L236,404 L244,440 L252,473 L255,488 L266,528 L274,553 L284,581 L292,597 L299,609 L309,624 L322,641 L333,654 L347,668 L358,677 L373,690 L375,694 L181,694 L181,682 L182,673 L182,654 L179,630 L172,598 L164,569 L156,540 L153,528 L153,523 L132,524 L95,525 L59,528 L35,531 L11,536 L-4,540 L-7,541 L-7,564 L-4,588 L0,608 L7,636 L13,656 L12,659 L3,653 L-7,647 L-23,639 L-39,631 L-62,621 L-80,615 L-91,612 L-102,610 L-105,609 L-103,605 L-94,589 L-86,569 L-77,540 L-70,514 L-65,495 L-57,459 L-53,440 L-49,425 L-42,394 L-29,337 L-20,295 L-12,260 L-5,227 L-1,211 L3,191 L11,155 L18,121 L22,102 L27,71 L28,62 L28,49 L25,37 L18,25 L10,17 L-6,6 L-6,3 Z M91,301 L88,309 L81,337 L73,374 L67,408 L61,450 L60,468 L65,469 L81,464 L97,456 L109,448 L114,444 L118,435 L117,422 L112,396 L110,388 L97,323 L94,310 L92,301 Z " fill="#222E50" transform="translate(608,38)"/>
<path d="M0,0 L148,0 L148,32 L151,56 L157,92 L163,127 L166,140 L169,159 L173,179 L177,198 L178,202 L181,193 L191,154 L196,137 L204,105 L220,42 L225,21 L230,1 L354,1 L348,13 L343,24 L340,36 L338,57 L337,73 L336,337 L336,622 L339,646 L345,667 L351,682 L355,691 L355,693 L202,693 L204,688 L211,678 L217,665 L222,649 L225,629 L227,597 L228,296 L228,129 L218,169 L209,204 L197,252 L192,270 L188,287 L179,322 L173,348 L169,362 L165,380 L161,396 L157,410 L153,427 L151,433 L146,432 L140,429 L136,424 L131,412 L123,386 L113,345 L105,307 L95,256 L89,220 L81,184 L77,160 L72,137 L69,122 L67,371 L67,606 L68,626 L73,656 L78,672 L84,687 L84,691 L35,693 L16,693 L17,685 L26,658 L30,633 L31,609 L32,242 L32,83 L30,64 L26,47 L20,31 L13,20 L3,9 L0,5 Z " fill="#232D4E" transform="translate(1782,44)"/>
<path d="M0,0 L25,0 L33,2 L50,6 L64,11 L75,17 L88,27 L95,33 L104,44 L110,54 L114,68 L114,84 L111,96 L105,106 L99,112 L96,112 L91,92 L84,78 L75,68 L58,58 L45,54 L40,53 L22,53 L9,56 L-7,63 L-19,70 L-35,83 L-44,93 L-53,105 L-66,127 L-77,152 L-87,182 L-94,210 L-98,232 L-103,271 L-105,302 L-105,381 L-100,427 L-95,454 L-91,471 L-83,497 L-74,520 L-63,540 L-53,554 L-45,563 L-45,565 L-43,565 L-43,567 L-41,567 L-41,569 L-37,571 L-29,578 L-11,589 L-2,593 L-2,495 L-1,319 L-1,256 L-5,242 L-12,229 L-14,225 L120,225 L119,230 L113,239 L107,253 L104,269 L103,296 L102,474 L102,615 L103,637 L107,667 L113,688 L116,694 L116,696 L60,696 L33,693 L14,688 L9,686 L1,684 L-17,677 L-30,671 L-42,665 L-51,659 L-51,657 L-56,655 L-68,647 L-75,640 L-77,639 L-77,637 L-81,635 L-91,625 L-91,623 L-93,623 L-102,612 L-113,597 L-123,583 L-135,562 L-147,539 L-157,516 L-164,496 L-170,477 L-178,445 L-183,421 L-188,386 L-190,357 L-190,320 L-189,300 L-185,267 L-177,227 L-173,210 L-169,195 L-162,174 L-155,155 L-144,130 L-134,111 L-120,88 L-108,72 L-99,61 L-85,46 L-82,45 L-82,43 L-71,34 L-61,26 L-43,15 L-29,8 L-14,3 Z " fill="#232E50" transform="translate(1096,33)"/>
<path d="M0,0 L227,0 L236,2 L236,4 L242,6 L252,15 L256,20 L260,28 L262,36 L262,46 L259,57 L252,68 L246,72 L242,70 L232,62 L217,55 L206,52 L199,51 L177,51 L153,54 L144,57 L141,58 L140,70 L139,204 L155,205 L184,205 L212,201 L217,200 L216,207 L213,218 L211,221 L208,232 L205,242 L200,254 L198,261 L175,258 L138,255 L139,599 L142,620 L147,632 L153,641 L162,649 L173,654 L180,656 L189,657 L206,657 L217,655 L231,648 L235,646 L237,642 L243,632 L246,622 L246,609 L242,597 L238,592 L238,590 L244,591 L259,599 L264,604 L270,612 L273,624 L273,636 L270,650 L262,664 L253,673 L243,680 L229,687 L203,693 L197,694 L61,694 L17,693 L16,689 L23,678 L29,662 L32,649 L34,631 L36,123 L36,85 L33,61 L29,46 L22,30 L14,18 L5,7 Z " fill="#232F50" transform="translate(2196,46)"/>
<path d="M0,0 L11,0 L51,3 L306,4 L304,15 L300,28 L294,38 L283,50 L276,55 L260,62 L241,66 L191,66 L191,237 L190,539 L190,615 L192,645 L196,664 L203,684 L208,695 L208,697 L98,697 L69,696 L71,690 L78,678 L84,662 L86,652 L89,611 L90,563 L92,65 L46,66 L33,68 L20,72 L10,78 L3,86 L-3,94 L-7,97 L-7,70 L-5,3 Z " fill="#232F51" transform="translate(1254,38)"/>
<path d="M0,0 L145,0 L139,7 L133,16 L130,23 L127,36 L126,53 L125,231 L124,482 L124,612 L125,634 L130,660 L135,676 L142,691 L142,693 L1,693 L0,689 L6,676 L12,655 L15,631 L17,601 L18,309 L18,50 L15,30 L10,17 L5,8 Z " fill="#233052" transform="translate(1574,43)"/>
<path d="M0,0 L5,1 L106,1 L143,2 L149,7 L149,9 L151,9 L151,11 L155,13 L173,31 L181,38 L197,53 L200,55 L200,57 L202,57 L209,65 L211,69 L204,85 L199,108 L198,120 L197,331 L197,470 L199,480 L203,490 L212,503 L221,513 L226,518 L226,520 L229,521 L235,528 L243,535 L250,542 L257,548 L256,551 L158,551 L135,549 L110,545 L79,538 L55,530 L31,520 L14,511 L12,507 L4,501 L-9,487 L-20,473 L-27,463 L-29,462 L-29,460 L-33,458 L-43,450 L-43,448 L-46,447 L-49,444 L-49,442 L-53,440 L-53,437 L-39,446 L-39,448 L-34,450 L-23,457 L2,468 L15,473 L24,475 L33,478 L45,481 L72,484 L128,485 L124,477 L118,456 L114,426 L113,404 L113,263 L114,85 L115,58 L118,42 L125,26 L131,17 L132,14 L-2,14 L5,25 L10,37 L12,45 L12,108 L11,284 L10,358 L5,356 L-3,349 L-4,254 L-5,250 L-4,250 L-4,187 L-3,93 L-2,55 L-6,38 L-14,22 L-19,16 L-16,4 L-15,2 Z " fill="#85502C" transform="translate(1084,244)"/>
<path d="M0,0 L7,6 L17,17 L27,34 L35,54 L40,71 L44,96 L44,121 L41,145 L30,185 L23,203 L16,227 L13,242 L13,278 L16,292 L21,305 L29,318 L38,328 L45,334 L62,344 L73,348 L82,350 L102,350 L118,345 L130,338 L138,331 L146,320 L150,312 L154,299 L154,279 L149,266 L143,258 L136,252 L125,248 L122,247 L127,252 L133,260 L136,267 L137,273 L137,281 L135,290 L130,300 L121,310 L111,316 L104,318 L91,319 L78,317 L68,313 L58,306 L50,298 L42,282 L38,269 L37,263 L37,252 L40,236 L48,219 L55,210 L68,197 L81,188 L95,182 L108,179 L129,179 L146,183 L159,188 L170,194 L183,204 L189,209 L198,220 L205,230 L212,244 L217,259 L220,274 L220,303 L217,320 L210,341 L203,355 L195,367 L187,377 L180,384 L163,397 L146,407 L126,415 L106,420 L99,421 L64,421 L43,418 L21,412 L0,403 L-16,392 L-26,384 L-38,373 L-51,360 L-56,358 L-65,358 L-72,361 L-80,367 L-83,367 L-91,360 L-92,357 L-94,357 L-101,349 L-113,336 L-121,327 L-119,323 L-106,314 L-93,303 L-83,294 L-66,277 L-55,263 L-45,249 L-30,224 L-16,196 L-6,172 L1,149 L6,127 L10,98 L10,77 L8,55 L3,30 L-3,12 L-6,4 Z " fill="#AD8F52" transform="translate(875,917)"/>
<path d="M0,0 L2,0 L7,11 L9,21 L10,39 L10,73 L7,78 L0,85 L-10,92 L-26,99 L-43,104 L-48,104 L-48,157 L-49,372 L-49,605 L-48,644 L-45,659 L-40,672 L-33,684 L-25,694 L-18,702 L-10,709 L5,724 L13,731 L15,733 L15,736 L-206,736 L-208,735 L-208,733 L-210,733 L-210,731 L-212,731 L-212,729 L-214,729 L-214,727 L-216,727 L-216,725 L-218,725 L-218,723 L-220,723 L-220,721 L-222,721 L-222,719 L-224,719 L-224,717 L-226,717 L-226,715 L-228,715 L-228,713 L-230,713 L-230,711 L-232,711 L-232,709 L-234,709 L-234,707 L-236,707 L-237,704 L-233,701 L-231,701 L-231,699 L-227,695 L-225,695 L-226,691 L-228,691 L-228,689 L-233,687 L-235,683 L-240,679 L-245,675 L-240,675 L-240,677 L-235,678 L-224,682 L-223,683 L-85,683 L-94,664 L-101,645 L-105,629 L-107,614 L-108,599 L-108,521 L-106,55 L-105,54 L-56,54 L-44,52 L-33,48 L-23,42 L-13,33 L-8,26 L-2,11 Z " fill="#744921" transform="translate(1569,59)"/>
<path d="M0,0 L12,3 L25,8 L35,15 L39,17 L33,3 L33,0 L38,2 L52,16 L61,27 L72,41 L81,56 L87,70 L90,81 L91,88 L91,102 L88,115 L81,127 L74,134 L66,138 L58,140 L48,140 L41,133 L34,125 L25,115 L15,107 L3,100 L-8,96 L-20,96 L-28,101 L-29,103 L-30,115 L-31,185 L-14,180 L3,170 L7,168 L15,175 L28,189 L37,200 L45,209 L55,223 L52,232 L43,255 L37,271 L22,309 L19,313 L14,314 L7,307 L-7,297 L-15,293 L-31,290 L-31,353 L-30,633 L-25,636 L-16,635 L-11,634 L-16,640 L-26,645 L-29,646 L-50,646 L-50,648 L-57,648 L-66,641 L-73,631 L-79,616 L-82,598 L-83,586 L-83,261 L-57,263 L-38,266 L-34,266 L-36,263 L-31,265 L-26,268 L-24,268 L-18,252 L-6,216 L0,198 L0,192 L-2,190 L-8,195 L-15,199 L-20,215 L-26,234 L-30,246 L-34,256 L-38,258 L-36,249 L-32,240 L-29,230 L-25,217 L-22,210 L-20,199 L-45,203 L-52,204 L-81,204 L-97,202 L-97,68 L-96,56 L-88,52 L-70,49 L-59,48 L-37,48 L-22,51 L-10,56 L0,62 L8,69 L13,67 L16,66 L18,62 L23,53 L25,44 L25,34 L22,24 L17,15 L9,7 L0,2 Z " fill="#734A22" transform="translate(2432,48)"/>
<path d="M0,0 L48,0 L73,4 L86,8 L102,16 L113,23 L124,32 L135,43 L145,56 L154,70 L162,88 L168,107 L172,126 L173,138 L173,174 L170,198 L162,228 L153,250 L143,270 L131,288 L121,301 L107,316 L96,327 L82,338 L65,349 L53,356 L34,364 L14,370 L5,372 L-2,372 L-2,269 Z M93,47 L89,51 L88,83 L89,131 L88,272 L89,283 L88,288 L90,291 L96,287 L100,281 L102,277 L104,277 L117,260 L130,236 L135,224 L138,215 L142,198 L146,171 L146,131 L143,113 L137,95 L129,79 L119,66 L116,63 L114,63 L112,59 L100,50 Z " fill="#B98A51" transform="translate(245,171)"/>
<path d="M0,0 L1,0 L6,23 L10,46 L9,69 L9,88 L14,115 L20,142 L26,170 L35,209 L39,226 L49,237 L49,239 L51,239 L58,247 L60,249 L61,287 L61,423 L63,459 L66,476 L72,492 L77,501 L84,511 L93,521 L97,526 L105,533 L119,547 L126,553 L126,555 L-9,555 L-12,554 L-19,546 L-33,532 L-40,524 L-48,515 L-48,513 L-54,512 L-57,509 L-57,507 L-59,507 L-62,502 L-62,500 L-57,501 L-52,503 L-28,503 L-13,502 L24,502 L15,486 L9,471 L4,455 L0,432 L-1,415 L-1,148 Z " fill="#764922" transform="translate(1866,241)"/>
<path d="M0,0 L120,0 L599,2 L774,3 L1008,4 L1354,6 L1475,7 L1620,7 L1632,10 L1639,14 L1646,21 L1650,31 L1650,44 L1646,54 L1639,63 L1628,74 L1614,85 L1598,98 L1586,110 L1575,126 L1571,134 L1569,143 L1569,151 L1572,162 L1578,172 L1587,180 L1598,185 L1607,187 L1617,187 L1630,183 L1639,176 L1645,169 L1650,159 L1652,151 L1651,142 L1646,134 L1640,129 L1635,127 L1625,127 L1619,131 L1615,137 L1614,145 L1617,149 L1625,150 L1627,152 L1627,158 L1623,162 L1616,163 L1609,160 L1605,155 L1602,147 L1604,134 L1610,126 L1616,121 L1623,118 L1636,118 L1648,124 L1656,133 L1660,142 L1661,152 L1659,162 L1651,178 L1644,186 L1641,189 L1648,189 L1649,190 L1649,195 L1646,196 L1608,196 L791,192 L340,190 L160,189 L158,187 L159,183 L163,182 L409,183 L876,185 L905,185 L1275,187 L1418,187 L1443,184 L1468,179 L1491,172 L1515,161 L1526,155 L1538,147 L1550,138 L1563,125 L1570,115 L1575,104 L1578,90 L1578,67 L1575,58 L1567,49 L1559,45 L1547,45 L1539,49 L1533,58 L1533,67 L1536,70 L1540,68 L1546,67 L1551,70 L1553,72 L1553,79 L1548,84 L1541,86 L1532,83 L1527,78 L1524,74 L1522,67 L1523,57 L1529,45 L1538,38 L1545,35 L1555,34 L1565,36 L1573,42 L1581,51 L1585,60 L1586,64 L1586,88 L1585,98 L1595,90 L1611,77 L1624,66 L1635,56 L1640,49 L1642,41 L1641,30 L1637,23 L1632,19 L1625,17 L1617,17 L1609,21 L1605,25 L1604,28 L1604,35 L1607,40 L1613,42 L1615,37 L1616,36 L1623,37 L1625,39 L1625,47 L1620,51 L1614,52 L1602,46 L1596,37 L1595,34 L1595,26 L1598,19 L1601,14 L1592,15 L1380,14 L1212,13 L817,11 L451,9 L0,7 L-1,3 Z M1560,139 L1549,147 L1535,157 L1518,167 L1516,169 L1511,170 L1499,176 L1474,185 L1473,188 L1478,189 L1583,189 L1583,186 L1573,177 L1566,167 L1563,158 L1561,139 Z M1469,186 L1462,188 L1466,189 L1471,189 L1471,186 Z M1584,188 Z " fill="#1A1A1A" transform="translate(851,834)"/>
<path d="M0,0 L47,0 L275,1 L417,2 L642,3 L1014,5 L1473,7 L1474,8 L1474,13 L1473,14 L1387,14 L1146,13 L567,10 L529,10 L335,9 L273,8 L273,10 L278,12 L283,17 L288,23 L292,31 L294,39 L294,53 L290,65 L286,72 L302,75 L316,80 L312,71 L311,66 L311,56 L314,46 L319,38 L328,30 L334,28 L348,28 L356,31 L359,34 L357,39 L353,38 L348,35 L344,34 L336,34 L328,38 L322,47 L321,51 L321,64 L324,74 L330,85 L340,95 L350,101 L359,104 L373,104 L381,100 L386,92 L387,82 L384,72 L380,70 L372,69 L370,69 L372,75 L372,82 L367,86 L361,86 L356,82 L355,73 L358,67 L366,62 L380,62 L389,68 L394,78 L394,91 L391,99 L386,105 L380,109 L374,111 L354,111 L361,121 L368,136 L373,153 L374,160 L374,178 L371,191 L364,205 L353,217 L346,222 L335,226 L315,226 L303,222 L292,214 L284,204 L279,191 L278,177 L281,166 L285,158 L293,150 L303,145 L306,144 L321,144 L332,148 L340,154 L345,162 L347,169 L347,179 L344,187 L339,194 L333,198 L323,199 L315,196 L310,191 L309,183 L312,178 L315,176 L322,177 L325,181 L324,189 L333,187 L337,182 L339,176 L339,168 L335,159 L329,154 L317,151 L308,152 L300,156 L295,161 L291,166 L288,172 L287,176 L287,189 L290,198 L298,209 L307,215 L315,218 L326,219 L337,217 L347,212 L353,207 L362,193 L366,180 L367,165 L364,148 L358,132 L352,121 L344,111 L334,101 L321,92 L309,86 L296,82 L290,81 L271,81 L259,84 L247,90 L236,99 L227,109 L219,123 L209,149 L203,157 L193,168 L182,175 L173,179 L163,181 L149,181 L137,177 L127,170 L117,161 L104,148 L95,137 L83,122 L75,111 L62,93 L46,72 L32,53 L18,34 L6,18 L-2,7 L-3,1 Z M8,7 L10,12 L20,25 L34,44 L44,57 L46,57 L47,43 L50,29 L58,18 L68,9 L67,7 Z M122,7 L116,8 L118,9 L120,13 L126,22 L129,31 L129,41 L126,51 L122,57 L116,62 L107,65 L99,65 L89,61 L84,55 L82,49 L82,41 L86,32 L91,28 L101,27 L107,30 L110,34 L111,41 L109,46 L108,47 L103,47 L101,44 L100,35 L95,34 L89,39 L87,43 L88,50 L92,56 L99,59 L107,59 L115,55 L120,49 L123,40 L123,32 L119,23 L113,16 L104,11 L96,9 L88,9 L73,14 L65,20 L59,28 L55,37 L54,41 L54,59 L58,71 L65,82 L75,91 L88,99 L99,103 L105,104 L119,104 L132,102 L143,98 L154,92 L166,81 L174,71 L179,61 L181,53 L180,45 L173,37 L167,36 L165,38 L162,45 L158,49 L152,49 L147,45 L146,38 L150,30 L156,26 L159,25 L170,25 L180,30 L186,38 L188,41 L196,25 L201,20 L201,18 L203,18 L203,16 L207,14 L210,10 L210,8 L195,7 L169,7 L165,8 L161,7 Z M212,8 Z M239,9 L223,13 L212,19 L205,25 L198,35 L194,47 L194,70 L198,90 L205,115 L207,123 L211,118 L218,107 L230,93 L240,85 L250,79 L244,72 L241,65 L241,58 L245,49 L253,43 L260,42 L268,47 L270,55 L267,61 L263,63 L256,62 L252,61 L252,67 L254,71 L260,74 L270,73 L278,68 L284,60 L287,49 L287,42 L283,30 L279,24 L277,24 L275,20 L265,14 L252,10 L247,9 Z M185,63 L178,76 L167,89 L161,94 L161,96 L156,98 L141,106 L132,109 L127,110 L127,113 L137,112 L148,114 L154,120 L155,123 L155,130 L152,135 L151,136 L143,136 L140,133 L139,127 L140,122 L142,122 L142,120 L140,119 L134,119 L128,123 L124,128 L122,135 L123,146 L128,156 L134,163 L144,169 L154,172 L167,172 L179,168 L189,161 L196,153 L199,145 L200,140 L200,121 L189,75 L187,64 Z M80,105 L86,113 L98,129 L107,140 L113,147 L114,147 L115,132 L118,123 L125,115 L124,111 L101,110 L82,105 Z " fill="#181818" transform="translate(1025,1036)"/>
<path d="M0,0 L3,4 L7,20 L10,28 L18,64 L25,93 L33,131 L37,147 L40,162 L47,193 L51,213 L59,253 L64,282 L64,292 L60,304 L48,317 L37,325 L25,331 L16,334 L0,338 L-15,340 L-32,340 L-47,337 L-65,330 L-75,323 L-75,312 L-71,273 L-66,236 L-62,212 L-57,182 L-50,148 L-43,117 L-33,80 L-26,60 L-18,39 L-7,15 Z M22,155 L19,163 L12,191 L4,228 L-2,262 L-8,304 L-9,322 L-4,323 L12,318 L28,310 L40,302 L45,298 L49,289 L48,276 L43,250 L41,242 L28,177 L25,164 L23,155 Z " fill="#774822" transform="translate(677,184)"/>
<path d="M0,0 L4,2 L13,10 L28,21 L43,30 L61,38 L79,43 L98,46 L120,46 L135,44 L156,39 L172,31 L187,22 L189,23 L189,29 L173,39 L163,47 L153,56 L144,65 L135,78 L126,97 L121,112 L118,129 L118,151 L121,166 L128,182 L136,195 L142,202 L156,213 L172,221 L187,225 L210,225 L225,221 L237,215 L246,208 L255,199 L263,185 L267,171 L268,164 L268,154 L265,140 L257,124 L247,114 L235,108 L228,106 L211,106 L199,111 L193,115 L188,120 L183,128 L181,133 L180,145 L182,154 L186,160 L193,166 L203,169 L210,169 L219,165 L222,164 L224,160 L226,155 L226,149 L222,153 L216,154 L210,151 L208,148 L208,139 L213,134 L221,133 L229,137 L233,143 L234,147 L234,155 L230,165 L221,173 L214,176 L203,177 L191,174 L182,168 L175,161 L169,151 L165,135 L165,111 L170,94 L179,77 L190,63 L200,53 L215,42 L229,35 L242,30 L247,29 L260,29 L268,32 L276,39 L279,45 L279,59 L275,67 L268,73 L262,75 L255,75 L247,71 L243,66 L242,64 L242,56 L247,50 L254,51 L257,54 L256,62 L258,64 L265,64 L270,59 L271,56 L271,47 L267,41 L261,37 L254,36 L238,39 L229,43 L218,49 L206,58 L192,72 L182,87 L176,100 L173,112 L173,134 L176,125 L182,115 L189,108 L199,102 L213,98 L228,98 L242,102 L252,108 L261,116 L270,130 L275,144 L276,150 L276,170 L273,182 L268,194 L258,208 L251,215 L241,222 L229,228 L214,232 L207,233 L190,233 L174,230 L159,224 L144,214 L129,199 L122,190 L114,191 L110,194 L109,203 L118,222 L120,231 L120,244 L115,259 L108,269 L100,277 L88,283 L81,285 L60,285 L47,281 L38,276 L30,270 L19,256 L14,246 L10,233 L9,216 L10,211 L-1,210 L-9,206 L-14,198 L-15,195 L-15,188 L-12,180 L-20,179 L-35,174 L-51,166 L-62,159 L-86,145 L-107,135 L-127,128 L-143,124 L-163,121 L-175,121 L-194,123 L-213,128 L-229,136 L-239,145 L-246,154 L-251,165 L-254,178 L-254,188 L-251,202 L-247,210 L-240,218 L-230,224 L-220,226 L-207,225 L-197,220 L-192,215 L-187,207 L-186,204 L-186,189 L-191,181 L-198,177 L-205,176 L-210,178 L-206,182 L-206,190 L-209,195 L-215,198 L-221,196 L-225,192 L-226,190 L-226,180 L-220,172 L-213,168 L-199,168 L-190,172 L-183,178 L-178,188 L-178,204 L-182,215 L-191,225 L-201,231 L-207,233 L-227,233 L-239,228 L-249,219 L-255,211 L-260,199 L-261,194 L-261,172 L-257,159 L-251,147 L-251,146 L-269,159 L-287,172 L-301,183 L-314,194 L-324,203 L-332,211 L-336,217 L-337,220 L-337,228 L-334,233 L-330,236 L-323,236 L-318,233 L-317,228 L-322,220 L-319,215 L-312,215 L-307,220 L-305,229 L-308,237 L-314,242 L-318,244 L-329,244 L-336,241 L-341,236 L-344,231 L-345,222 L-341,211 L-330,199 L-320,189 L-309,180 L-292,166 L-279,157 L-260,143 L-229,122 L-211,110 L-187,95 L-165,82 L-140,68 L-116,55 L-93,43 L-65,29 L-42,18 L-24,10 L-3,1 Z M-3,8 L-32,21 L-55,32 L-94,51 L-121,65 L-143,77 L-171,93 L-192,106 L-198,110 L-209,117 L-210,119 L-197,116 L-177,114 L-156,115 L-138,118 L-117,124 L-95,133 L-79,141 L-72,145 L-70,144 L-78,128 L-82,112 L-82,96 L-78,80 L-71,66 L-60,54 L-51,48 L-40,43 L-32,41 L-15,41 L0,45 L13,54 L20,64 L24,72 L26,80 L26,97 L22,109 L15,118 L7,124 L-3,128 L-12,129 L-24,126 L-30,123 L-35,118 L-39,112 L-41,103 L-40,94 L-36,86 L-36,84 L-32,82 L-26,79 L-17,78 L-7,82 L-3,88 L-3,96 L-7,100 L-12,100 L-12,95 L-11,94 L-11,87 L-16,84 L-24,84 L-31,88 L-35,93 L-36,96 L-36,105 L-33,112 L-29,118 L-19,123 L-3,123 L7,118 L12,114 L18,105 L21,97 L21,79 L17,68 L13,62 L4,53 L-6,48 L-14,46 L-31,46 L-43,50 L-53,56 L-63,65 L-69,74 L-74,85 L-77,100 L-76,116 L-72,128 L-66,140 L-59,149 L-52,156 L-42,163 L-24,171 L-10,174 L18,174 L34,170 L50,162 L66,150 L78,139 L88,128 L99,114 L110,98 L109,96 L95,101 L79,103 L63,100 L53,94 L47,87 L44,80 L43,71 L46,61 L50,55 L50,53 L54,51 L59,48 L58,44 L37,34 L13,18 L3,9 Z M145,49 Z M138,50 L125,52 L93,52 L79,51 L83,60 L83,68 L79,76 L76,78 L67,78 L64,74 L64,66 L75,68 L76,67 L76,59 L71,54 L69,53 L60,54 L55,57 L50,65 L49,68 L49,77 L52,84 L59,92 L71,97 L89,97 L99,94 L113,86 L124,77 L134,66 L145,52 L145,50 Z M114,104 L113,106 L115,106 Z M111,109 L102,120 L94,130 L85,140 L70,155 L56,165 L45,172 L32,183 L23,194 L18,206 L16,217 L16,228 L19,240 L23,249 L29,259 L35,266 L45,273 L58,278 L62,279 L79,279 L91,275 L99,269 L107,260 L111,252 L114,239 L113,228 L109,219 L107,215 L99,208 L89,204 L82,203 L72,205 L63,211 L58,217 L56,224 L56,232 L59,239 L64,244 L68,246 L75,246 L79,244 L80,240 L78,236 L78,231 L84,231 L87,236 L86,245 L80,250 L78,251 L67,251 L60,248 L55,243 L51,235 L50,225 L52,216 L58,208 L65,202 L78,198 L87,198 L100,201 L102,192 L108,185 L119,181 L116,171 L112,155 L111,148 L111,127 L113,116 L113,109 Z M-70,145 Z M25,179 Z M18,180 L0,181 L-5,182 L-7,187 L-7,196 L-3,201 L0,203 L10,203 L13,201 L20,187 L25,180 Z " fill="#161616" transform="translate(473,1240)"/>
<path d="M0,0 L22,0 L38,4 L49,9 L60,16 L72,27 L81,40 L86,51 L90,65 L92,78 L92,92 L89,109 L85,122 L78,138 L69,151 L60,162 L58,162 L58,164 L44,175 L30,183 L14,190 L-8,195 L-41,195 L-59,192 L-77,186 L-96,177 L-114,165 L-125,156 L-132,148 L-146,130 L-152,128 L-177,126 L-188,124 L-188,122 L-174,114 L-165,106 L-163,106 L-161,102 L-150,90 L-140,77 L-132,67 L-123,57 L-120,54 L-116,54 L-115,73 L-111,92 L-106,107 L-97,124 L-86,137 L-77,145 L-63,154 L-47,161 L-33,164 L-25,165 L-8,165 L13,160 L29,152 L40,144 L49,135 L56,125 L62,112 L66,98 L66,76 L61,60 L55,49 L46,39 L38,34 L25,30 L12,30 L2,35 L-3,39 L-7,46 L-9,53 L-7,52 L2,52 L8,55 L13,60 L17,68 L17,78 L12,88 L4,95 L-4,98 L-22,98 L-31,94 L-39,88 L-45,78 L-48,69 L-48,45 L-44,34 L-38,24 L-28,13 L-15,5 L-8,2 Z " fill="#24263F" transform="translate(977,1120)"/>
<path d="M0,0 L3,4 L7,20 L6,27 L-3,46 L-16,84 L-22,105 L-28,127 L-36,164 L-44,210 L-52,259 L-57,295 L-59,325 L-57,324 L-42,325 L-19,325 L-9,324 L-8,322 L0,321 L17,315 L33,306 L42,299 L45,298 L48,289 L47,276 L42,250 L40,242 L27,177 L24,164 L22,156 L21,154 L19,138 L13,110 L3,62 L4,53 L9,42 L10,38 L12,38 L25,93 L33,131 L37,147 L40,162 L47,193 L51,213 L59,253 L64,282 L64,292 L60,304 L48,317 L37,325 L25,331 L16,334 L0,338 L-15,340 L-32,340 L-47,337 L-65,330 L-75,323 L-75,312 L-71,273 L-66,236 L-62,212 L-57,182 L-50,148 L-43,117 L-33,80 L-26,60 L-18,39 L-7,15 Z " fill="#C07C58" transform="translate(677,184)"/>
<path d="M0,0 L18,0 L34,4 L50,13 L49,15 L39,10 L30,8 L10,8 L-6,12 L-20,19 L-22,19 L-22,21 L-27,24 L-33,29 L-35,29 L-35,31 L-37,31 L-37,33 L-41,37 L-43,37 L-43,39 L-45,39 L-47,43 L-59,59 L-67,72 L-76,91 L-82,104 L-92,135 L-98,160 L-104,193 L-109,232 L-111,265 L-111,322 L-108,356 L-104,384 L-96,423 L-91,439 L-84,458 L-76,474 L-66,490 L-57,500 L-50,508 L-45,512 L-45,514 L-41,516 L-33,522 L-24,527 L-24,541 L-29,540 L-45,531 L-57,522 L-63,517 L-63,515 L-65,515 L-65,513 L-67,513 L-76,502 L-86,488 L-97,468 L-107,442 L-114,419 L-119,398 L-124,367 L-128,329 L-128,250 L-126,219 L-123,195 L-118,163 L-112,137 L-104,111 L-96,90 L-87,71 L-76,53 L-69,44 L-58,31 L-49,23 L-35,13 L-18,5 L-5,1 Z " fill="#D56759" transform="translate(1118,85)"/>
<path d="M0,0 L2,4 L7,28 L11,49 L16,76 L16,494 L17,511 L21,534 L29,558 L37,574 L40,579 L40,581 L3,582 L-12,583 L-36,583 L-47,578 L-51,575 L-6,573 L16,573 L10,557 L6,546 L2,528 L-1,508 L-2,488 L-2,253 Z " fill="#D7685B" transform="translate(1850,162)"/>
<path d="M0,0 L4,2 L8,5 L6,10 L-2,20 L-6,30 L-8,45 L-8,79 L-4,117 L1,154 L12,220 L21,267 L32,323 L38,353 L44,381 L53,423 L64,471 L73,505 L80,528 L89,553 L99,577 L107,593 L113,604 L124,620 L136,636 L148,650 L163,666 L173,676 L181,683 L194,694 L198,697 L196,701 L194,703 L-14,703 L-19,699 L-19,697 L-23,695 L-30,688 L-30,687 L160,686 L160,688 L-21,689 L-15,693 L181,694 L181,692 L179,692 L179,690 L174,688 L167,681 L159,674 L142,657 L133,646 L123,634 L110,616 L98,597 L87,576 L76,549 L64,511 L56,482 L50,457 L38,405 L32,375 L27,353 L19,315 L12,278 L7,254 L-2,206 L-10,159 L-15,120 L-18,89 L-19,77 L-19,44 L-17,30 L-13,17 L-9,9 L-7,9 L-5,4 Z " fill="#A93524" transform="translate(824,45)"/>
<path d="M0,0 L3,3 L2,12 L-10,48 L-20,77 L-22,80 L-27,78 L-33,75 L-31,78 L-41,77 L-65,74 L-78,73 L-81,72 L-80,397 L-77,423 L-72,438 L-64,451 L-55,458 L-48,459 L-48,457 L-27,456 L-17,452 L-10,446 L-11,444 L-6,442 L-4,437 L-1,430 L0,425 L0,415 L-6,405 L-8,403 L-8,396 L-3,390 L3,388 L19,390 L30,393 L36,397 L37,401 L27,399 L12,399 L12,401 L4,399 L10,408 L13,418 L13,431 L9,443 L3,452 L-2,457 L-10,462 L-20,466 L-28,467 L-45,467 L-57,465 L-68,461 L-77,455 L-84,448 L-91,435 L-94,424 L-96,408 L-96,64 L-72,65 L-50,67 L-36,69 L-32,65 L-27,51 L-21,33 L-14,10 L-3,3 Z " fill="#CD7058" transform="translate(2430,237)"/>
<path d="M0,0 L10,0 L10,479 L9,527 L6,568 L2,584 L-5,600 L-11,610 L-11,612 L-4,616 L0,620 L2,624 L6,626 L6,628 L8,628 L9,632 L7,632 L5,636 L3,636 L3,638 L-2,641 L-6,639 L-8,638 L-8,636 L-10,636 L-10,634 L-12,634 L-12,632 L-16,630 L-23,623 L-25,622 L-25,620 L-29,618 L-30,615 L-32,614 L-21,600 L-15,590 L-10,578 L-6,558 L-5,547 L-4,524 L-3,414 L-2,116 L-2,51 L-1,48 Z " fill="#AA8E57" transform="translate(1335,122)"/>
<path d="M0,0 L5,1 L106,1 L139,2 L140,5 L135,14 L-2,14 L5,25 L10,37 L12,45 L12,108 L11,284 L10,358 L5,356 L-3,349 L-4,254 L-5,250 L-4,250 L-4,187 L-3,93 L-2,55 L-6,38 L-14,22 L-19,16 L-16,4 L-15,2 Z " fill="#AC8F56" transform="translate(1084,244)"/>
<path d="M0,0 L1,0 L1,58 L-4,83 L-8,99 L-14,123 L-26,171 L-33,198 L-39,222 L-47,252 L-51,270 L-56,288 L-60,304 L-64,319 L-69,317 L-76,312 L-78,308 L-73,290 L-69,274 L-65,256 L-61,242 L-57,226 L-51,202 L-46,180 L-39,153 L-28,110 L-23,90 L-12,46 L-2,7 Z " fill="#D5695B" transform="translate(2010,170)"/>
<path d="M0,0 L22,0 L37,3 L49,8 L59,14 L69,23 L70,29 L65,27 L51,19 L38,14 L24,11 L1,11 L-18,15 L-20,40 L-21,105 L-22,143 L-23,147 L5,146 L7,145 L26,143 L40,141 L36,147 L34,147 L34,149 L32,149 L32,151 L21,154 L7,156 L-22,156 L-38,154 L-38,20 L-37,8 L-29,4 L-11,1 Z " fill="#C07656" transform="translate(2373,96)"/>
<path d="M0,0 L4,2 L10,6 L10,173 L9,303 L7,347 L1,349 L-1,349 L-1,108 Z " fill="#AD3624" transform="translate(263,185)"/>
<path d="M0,0 L14,1 L12,6 L11,15 L11,100 L14,104 L14,108 L-6,108 L-6,104 L-4,100 L-3,41 L-36,41 L-35,98 L-32,104 L-32,108 L-52,108 L-52,104 L-50,100 L-50,8 L-53,3 L-53,1 L-32,1 L-33,5 L-35,9 L-35,32 L-23,32 L-3,33 L-4,8 L-7,1 Z " fill="#121212" transform="translate(1710,1086)"/>
<path d="M0,0 L16,0 L19,1 L19,4 L12,9 L5,17 L-7,31 L-5,35 L1,42 L9,59 L16,83 L22,101 L26,106 L26,108 L5,108 L5,99 L-5,60 L-10,47 L-13,43 L-13,41 L-21,48 L-23,51 L-23,101 L-20,105 L-20,108 L-42,108 L-41,104 L-39,101 L-38,75 L-39,7 L-42,3 L-42,1 L-21,1 L-22,5 L-24,15 L-24,38 L-15,28 L-3,12 L0,5 Z " fill="#131313" transform="translate(1870,1086)"/>
<path d="M0,0 L9,0 L18,3 L27,9 L34,18 L39,30 L41,41 L41,67 L38,82 L34,92 L27,101 L20,107 L14,110 L2,111 L-8,108 L-16,103 L-24,92 L-29,80 L-32,66 L-32,41 L-28,25 L-21,12 L-13,5 L-5,1 Z M3,8 L-3,10 L-9,15 L-15,25 L-18,37 L-18,68 L-14,84 L-9,94 L-3,100 L3,102 L11,101 L16,98 L21,92 L25,82 L27,73 L28,62 L28,48 L25,31 L21,20 L14,11 L6,8 Z " fill="#0F0F0F" transform="translate(2093,1085)"/>
<path d="M0,0 L19,1 L30,17 L42,33 L52,48 L53,50 L53,8 L49,1 L67,1 L65,6 L64,8 L64,99 L67,105 L66,108 L50,108 L51,104 L53,101 L53,78 L47,66 L39,54 L25,34 L14,20 L14,94 L16,102 L18,107 L1,108 L1,104 L3,101 L3,8 L1,3 L-1,3 Z " fill="#131313" transform="translate(1486,1086)"/>
<path d="M0,0 L26,0 L25,7 L34,45 L48,99 L52,105 L52,107 L32,107 L29,105 L31,102 L31,93 L26,75 L21,70 L12,65 L5,63 L-3,62 L-5,74 L-8,90 L-8,101 L-6,104 L-6,107 L-25,107 L-25,104 L-21,99 L-5,35 L1,12 L1,5 Z M10,11 L5,30 L0,50 L0,54 L16,58 L22,62 L24,61 L13,17 L11,11 Z " fill="#141414" transform="translate(2314,1087)"/>
<path d="M0,0 L16,0 L29,4 L37,10 L41,15 L44,24 L43,33 L39,41 L35,46 L27,52 L33,64 L40,87 L44,93 L48,96 L47,99 L35,99 L30,94 L26,81 L20,60 L17,56 L7,60 L7,92 L10,97 L10,99 L-8,99 L-5,90 L-5,24 L-7,18 L8,18 L7,21 L6,53 L22,45 L27,41 L31,31 L31,22 L28,13 L24,11 L15,8 L-1,8 L-11,12 L-16,18 L-16,27 L-12,31 L-13,35 L-17,38 L-22,37 L-26,32 L-27,30 L-27,19 L-22,11 L-15,5 L-5,1 Z " fill="#161615" transform="translate(974,877)"/>
<path d="M0,0 L25,0 L24,5 L30,33 L40,77 L44,87 L46,91 L28,91 L29,82 L25,67 L20,61 L9,54 L1,50 L-3,69 L-8,89 L-13,101 L-20,109 L-26,112 L-34,111 L-38,106 L-37,101 L-34,100 L-27,100 L-22,97 L-16,85 L-12,74 L-6,48 L-17,49 L-20,50 L-20,55 L-16,58 L-18,62 L-22,63 L-27,60 L-28,58 L-28,49 L-24,44 L-17,41 L-4,41 L2,12 L2,5 Z M11,7 L3,41 L4,44 L20,52 L23,53 L19,33 L13,8 Z " fill="#191919" transform="translate(1397,885)"/>
<path d="M0,0 L25,0 L41,1 L46,3 L47,9 L-2,10 L-25,11 L-46,13 L-69,16 L-81,19 L-89,24 L-90,25 L-89,40 L-84,66 L-78,89 L-73,105 L-63,135 L-61,139 L-61,147 L-62,151 L-66,149 L-70,145 L-77,124 L-86,97 L-92,74 L-97,52 L-101,28 L-100,19 L-95,14 L-90,13 L-90,11 L-66,6 L-30,2 Z " fill="#AB3523" transform="translate(716,571)"/>
<path d="M0,0 L49,0 L51,3 L40,29 L28,57 L19,77 L10,98 L35,98 L42,95 L49,89 L51,89 L49,106 L48,108 L-9,108 L-8,103 L3,77 L21,37 L32,12 L33,10 L9,10 L1,15 L-3,19 L-4,16 L-1,1 Z " fill="#121312" transform="translate(2443,1086)"/>
<path d="M0,0 L41,0 L50,1 L49,7 L33,43 L13,89 L9,98 L34,98 L42,95 L47,90 L50,89 L49,107 L48,108 L-9,108 L-8,102 L5,71 L19,40 L30,15 L32,10 L9,10 L2,14 L-2,19 L-4,19 L-3,7 L-1,1 Z " fill="#131313" transform="translate(2378,1086)"/>
<path d="M0,0 L15,1 L16,3 L17,16 L13,14 L9,11 L-3,9 L-17,8 L-17,32 L12,30 L11,41 L10,44 L6,42 L0,40 L-17,39 L-17,99 L7,98 L15,93 L18,90 L20,90 L19,106 L18,108 L-34,108 L-32,103 L-31,101 L-31,7 L-34,3 L-34,1 Z " fill="#131313" transform="translate(1935,1086)"/>
<path d="M0,0 L49,0 L50,4 L50,15 L47,13 L47,11 L42,9 L17,7 L17,31 L46,29 L44,42 L41,42 L36,39 L17,38 L18,98 L42,97 L50,92 L54,88 L54,96 L52,106 L51,107 L1,107 L0,104 L3,99 L3,7 L0,2 Z " fill="#111111" transform="translate(1735,1087)"/>
<path d="M0,0 L2,0 L3,6 L9,1 L12,0 L22,0 L28,4 L30,6 L35,2 L40,0 L49,0 L55,4 L59,12 L60,59 L62,64 L47,64 L49,48 L49,23 L48,13 L43,8 L36,9 L33,12 L32,39 L33,60 L35,64 L18,64 L18,62 L20,62 L20,12 L16,8 L9,9 L6,12 L4,20 L4,58 L6,64 L-9,64 L-7,58 L-7,11 L-9,5 L-9,2 Z " fill="#191919" transform="translate(1560,912)"/>
<path d="M0,0 L7,0 L10,5 L8,9 L5,10 L3,9 L3,7 L0,9 L0,15 L6,25 L8,32 L8,44 L4,53 L-4,60 L-10,62 L-22,63 L-24,67 L-13,69 L-1,71 L6,75 L11,81 L12,85 L12,92 L8,100 L-1,106 L-9,108 L-20,108 L-29,105 L-34,101 L-37,94 L-36,88 L-30,83 L-24,82 L-23,86 L-27,87 L-27,96 L-22,100 L-20,101 L-8,101 L-1,98 L2,95 L2,87 L-2,83 L-12,80 L-26,78 L-32,74 L-33,73 L-33,66 L-28,61 L-25,60 L-32,51 L-35,43 L-35,33 L-31,22 L-24,15 L-19,13 L-6,13 L-6,6 L-2,1 Z M-18,19 L-23,24 L-24,27 L-24,46 L-20,54 L-17,56 L-10,56 L-5,52 L-2,45 L-2,31 L-5,23 L-10,19 Z " fill="#1C1C1C" transform="translate(1534,899)"/>
<path d="M0,0 L11,0 L24,3 L25,6 L18,18 L16,18 L14,10 L10,8 L0,8 L-6,12 L-12,20 L-16,32 L-17,38 L-17,59 L-14,71 L-9,80 L-3,85 L2,87 L12,87 L16,85 L16,48 L12,46 L3,47 L1,53 L7,57 L8,61 L5,64 L-1,64 L-5,60 L-6,54 L-3,46 L2,42 L5,41 L16,41 L29,43 L28,47 L27,62 L27,89 L28,94 L20,93 L14,95 L-2,95 L-12,91 L-20,83 L-27,69 L-29,61 L-30,49 L-29,35 L-24,19 L-18,11 L-10,4 L-3,1 Z " fill="#161616" transform="translate(1923,882)"/>
<path d="M0,0 L23,0 L21,6 L29,26 L37,44 L44,29 L52,11 L53,3 L52,0 L70,0 L62,14 L49,40 L43,54 L43,100 L46,105 L46,107 L24,107 L25,103 L28,98 L28,57 L20,39 L13,24 L3,5 Z " fill="#121212" transform="translate(1956,1087)"/>
<path d="M0,0 L49,0 L50,16 L43,10 L35,8 L17,7 L17,30 L45,29 L44,39 L43,43 L39,41 L34,39 L17,38 L18,98 L22,106 L21,107 L0,107 L-1,105 L3,99 L3,7 L0,2 Z " fill="#121212" transform="translate(2144,1087)"/>
<path d="M0,0 L39,0 L56,1 L58,11 L59,19 L56,18 L52,13 L46,10 L34,9 L35,89 L36,100 L39,104 L39,108 L18,108 L17,105 L20,100 L21,9 L8,11 L2,15 L-1,19 L-3,19 L-1,3 Z " fill="#101010" transform="translate(1592,1086)"/>
<path d="M0,0 L1,0 L1,34 L-3,48 L-19,113 L-37,184 L-48,228 L-52,243 L-58,267 L-59,269 L-65,267 L-80,258 L-86,251 L-88,248 L-87,245 L-77,249 L-76,254 L-72,256 L-64,261 L-62,250 L-58,234 L-53,214 L-49,200 L-44,179 L-39,161 L-34,140 L-23,97 L-17,73 L-7,33 L-2,11 Z " fill="#A33624" transform="translate(2010,228)"/>
<path d="M0,0 L21,1 L19,6 L18,9 L17,88 L13,99 L6,106 L-1,109 L-6,110 L-15,110 L-26,106 L-31,101 L-34,96 L-35,86 L-32,78 L-25,72 L-22,72 L-24,79 L-24,90 L-20,97 L-14,100 L-7,100 L-1,97 L2,92 L3,87 L3,9 L-1,1 Z " fill="#101010" transform="translate(2264,1086)"/>
<path d="M0,0 L4,0 L5,85 L7,88 L7,91 L-5,91 L-6,87 L-11,91 L-13,92 L-22,92 L-28,89 L-34,82 L-38,71 L-39,67 L-39,52 L-35,39 L-27,30 L-20,27 L-13,27 L-7,31 L-7,6 L-9,1 Z M-18,34 L-23,37 L-27,45 L-29,61 L-27,74 L-22,82 L-17,85 L-11,84 L-6,78 L-6,42 L-9,37 L-13,34 Z " fill="#191919" transform="translate(1854,885)"/>
<path d="M0,0 L20,1 L19,6 L18,8 L18,98 L22,107 L21,108 L0,107 L1,103 L3,98 L3,9 L-1,1 Z " fill="#0D0D0D" transform="translate(1454,1086)"/>
<path d="M0,0 L2,0 L3,6 L9,1 L11,0 L21,0 L26,3 L30,8 L32,13 L33,58 L35,61 L35,64 L19,64 L21,60 L21,13 L20,9 L11,8 L6,11 L4,15 L4,59 L6,61 L6,64 L-9,64 L-9,61 L-7,56 L-7,12 L-9,5 L-9,2 Z " fill="#191918" transform="translate(2019,912)"/>
<path d="M0,0 L1,0 L1,7 L6,2 L11,0 L20,0 L26,4 L30,10 L31,14 L32,59 L34,64 L18,64 L20,60 L20,13 L19,9 L16,8 L9,8 L4,13 L3,16 L3,60 L5,64 L-11,64 L-9,60 L-9,7 L-12,4 L-12,2 Z " fill="#181818" transform="translate(2322,912)"/>
<path d="M0,0 L10,0 L18,5 L22,10 L26,19 L27,24 L27,42 L23,54 L16,62 L9,65 L-1,65 L-7,62 L-12,57 L-17,48 L-19,34 L-17,18 L-12,8 L-5,2 Z M2,6 L-3,9 L-7,18 L-8,24 L-8,41 L-5,51 L1,58 L8,58 L13,53 L16,46 L17,40 L17,27 L14,14 L10,8 L6,6 Z " fill="#191818" transform="translate(2276,912)"/>
<path d="M0,0 L1,0 L2,6 L8,1 L11,0 L21,0 L27,4 L30,8 L31,11 L32,57 L35,62 L35,64 L19,64 L21,55 L21,15 L18,9 L16,8 L7,9 L4,13 L3,18 L3,60 L5,60 L5,64 L-11,64 L-8,58 L-8,7 L-11,4 L-11,2 Z " fill="#151515" transform="translate(1690,912)"/>
<path d="M0,0 L3,1 L4,50 L6,54 L12,56 L19,53 L21,50 L21,7 L20,3 L18,3 L18,1 L31,1 L32,57 L35,63 L22,63 L22,58 L21,59 L15,63 L12,64 L4,64 L-2,61 L-6,56 L-7,52 L-8,7 L-10,1 Z " fill="#171717" transform="translate(1456,913)"/>
<path d="M0,0 L12,0 L18,3 L23,9 L24,12 L25,57 L28,62 L28,64 L16,64 L15,59 L10,63 L5,65 L-3,65 L-10,61 L-14,54 L-15,45 L-12,37 L-7,31 L7,23 L12,20 L14,20 L13,11 L9,7 L3,7 L-2,10 L-5,17 L-9,15 L-11,13 L-10,8 L-5,2 Z M14,26 L3,32 L-4,40 L-4,51 L0,56 L2,57 L8,57 L14,52 L15,50 L15,26 Z " fill="#1A1919" transform="translate(1286,912)"/>
<path d="M0,0 L10,0 L16,3 L21,9 L24,18 L24,26 L-3,38 L-7,39 L-4,49 L0,55 L5,57 L12,56 L16,51 L16,41 L22,41 L24,42 L24,53 L20,60 L13,64 L10,65 L1,65 L-8,61 L-14,52 L-17,44 L-18,36 L-18,26 L-16,17 L-11,7 L-3,1 Z M2,6 L-4,11 L-7,19 L-8,28 L-7,32 L-1,30 L14,23 L13,12 L10,7 Z " fill="#1B1B1B" transform="translate(2079,912)"/>
<path d="M0,0 L10,0 L18,4 L22,10 L24,18 L24,26 L3,35 L-5,39 L-7,39 L-3,52 L2,56 L9,57 L14,54 L16,51 L16,41 L19,40 L23,41 L24,43 L24,54 L20,60 L14,64 L10,65 L1,65 L-6,62 L-11,57 L-15,49 L-17,40 L-17,24 L-15,15 L-9,6 L-4,2 Z M3,6 L-3,10 L-6,16 L-7,21 L-7,32 L13,23 L14,18 L12,10 L8,6 Z " fill="#1B1B1B" transform="translate(1977,912)"/>
<path d="M0,0 L10,0 L17,3 L22,9 L23,12 L24,59 L27,62 L27,64 L15,64 L13,58 L12,61 L3,65 L-5,65 L-11,61 L-15,55 L-16,45 L-12,35 L-4,28 L11,20 L13,20 L12,11 L9,8 L3,7 L-2,10 L-6,17 L-10,15 L-12,11 L-8,4 Z M13,26 L0,33 L-5,39 L-6,42 L-6,50 L-3,56 L4,58 L12,54 L14,50 L14,26 Z " fill="#191919" transform="translate(2164,912)"/>
<path d="M0,0 L10,0 L17,4 L22,11 L24,25 L14,30 L-4,38 L-7,41 L-3,52 L1,56 L8,57 L14,54 L16,50 L16,40 L21,40 L24,43 L24,52 L21,58 L15,63 L10,65 L1,65 L-8,61 L-14,53 L-17,44 L-18,38 L-18,28 L-16,17 L-11,8 L-3,1 Z M2,6 L-4,11 L-7,19 L-8,32 L2,28 L13,23 L13,14 L10,8 L8,6 Z " fill="#1A1A1A" transform="translate(1193,912)"/>
<path d="M0,0 L45,0 L45,11 L10,12 L-7,15 L-21,22 L-27,27 L-36,38 L-41,36 L-48,30 L-47,26 L-39,15 L-32,9 L-21,4 L-9,1 Z " fill="#D36A5B" transform="translate(1300,103)"/>
<path d="M0,0 L10,0 L18,5 L22,11 L23,15 L23,26 L11,31 L-5,38 L-8,39 L-3,52 L1,56 L9,57 L14,54 L16,49 L16,40 L22,41 L24,43 L24,52 L21,58 L15,63 L11,65 L0,65 L-8,61 L-14,53 L-17,43 L-18,35 L-18,26 L-15,14 L-9,5 L-3,1 Z M2,6 L-3,9 L-7,17 L-8,24 L-8,32 L10,24 L13,22 L13,13 L9,7 L8,6 Z " fill="#1B1B1B" transform="translate(1784,912)"/>
<path d="M0,0 L10,0 L19,6 L22,11 L24,21 L23,26 L6,33 L-7,40 L-4,51 L1,56 L3,57 L9,57 L13,55 L16,49 L16,40 L22,41 L24,44 L24,52 L19,60 L13,64 L10,65 L1,65 L-6,62 L-11,57 L-15,50 L-17,44 L-18,35 L-18,26 L-15,15 L-10,7 L-3,1 Z M2,6 L-4,11 L-7,18 L-8,23 L-8,32 L2,28 L13,23 L13,13 L9,7 Z " fill="#1B1B1B" transform="translate(1043,912)"/>
<path d="M0,0 L10,0 L16,4 L21,10 L23,16 L23,26 L-2,37 L-8,39 L-4,51 L1,56 L8,57 L13,54 L15,51 L15,41 L19,40 L22,41 L23,43 L23,53 L17,62 L9,65 L0,65 L-8,61 L-14,53 L-17,46 L-18,40 L-18,23 L-14,12 L-8,4 Z M1,6 L-4,10 L-7,16 L-9,26 L-9,32 L0,29 L13,23 L13,15 L10,8 L7,6 Z " fill="#1B1B1B" transform="translate(1648,912)"/>
<path d="M0,0 L10,3 L23,10 L30,16 L36,26 L39,37 L39,49 L35,60 L28,70 L21,75 L15,76 L10,71 L10,69 L8,69 L10,65 L13,64 L15,60 L20,51 L22,42 L22,32 L19,22 L14,13 L6,5 L0,1 Z " fill="#D16657" transform="translate(2435,50)"/>
<path d="M0,0 L18,0 L17,8 L26,43 L27,44 L37,6 L34,0 L50,0 L46,6 L32,56 L30,62 L21,62 L18,53 L5,6 Z " fill="#181818" transform="translate(1219,914)"/>
<path d="M0,0 L4,1 L4,20 L10,19 L16,20 L16,25 L6,26 L4,25 L5,72 L9,75 L14,73 L16,69 L20,70 L21,73 L18,80 L13,83 L4,83 L-3,79 L-6,70 L-7,26 L-12,25 L-11,20 L-4,12 Z " fill="#1D1C1C" transform="translate(2207,894)"/>
<path d="M0,0 L8,0 L9,85 L11,88 L11,91 L-5,91 L-3,87 L-3,6 L-5,1 Z " fill="#191918" transform="translate(1326,885)"/>
<path d="M0,0 L3,0 L3,18 L12,18 L16,20 L15,24 L3,24 L4,70 L8,74 L13,72 L15,68 L20,70 L18,78 L14,81 L11,82 L3,82 L-3,79 L-6,73 L-7,25 L-13,24 L-12,19 L-5,13 L-1,1 Z " fill="#171717" transform="translate(1085,895)"/>
<path d="M0,0 L4,1 L4,10 L3,18 L12,19 L15,20 L15,24 L4,25 L4,69 L6,73 L10,74 L13,73 L15,68 L19,69 L20,74 L17,79 L11,82 L3,82 L-3,79 L-6,73 L-7,25 L-13,23 L-12,19 L-6,15 L-2,6 Z " fill="#151515" transform="translate(1742,895)"/>
<path d="M0,0 L2,0 L3,6 L9,1 L12,0 L20,0 L25,8 L24,13 L20,16 L16,15 L14,8 L8,9 L5,14 L4,18 L4,58 L7,61 L7,64 L-10,64 L-8,59 L-7,56 L-8,5 L-11,4 L-10,2 Z " fill="#1A1A1A" transform="translate(2121,912)"/>
<path d="M0,0 L2,0 L3,6 L7,2 L11,0 L20,0 L24,5 L25,11 L20,16 L16,15 L14,8 L9,9 L6,12 L4,17 L4,59 L6,61 L6,64 L-10,64 L-8,60 L-7,53 L-7,8 L-10,4 L-10,2 Z " fill="#161616" transform="translate(1121,912)"/>
<path d="M0,0 L5,0 L6,57 L8,60 L8,63 L-8,63 L-7,59 L-6,58 L-6,6 L-7,3 L-9,2 L-8,1 Z " fill="#161616" transform="translate(1159,913)"/>
<path d="M0,0 L6,2 L15,10 L20,19 L21,24 L21,37 L19,44 L13,53 L5,59 L-1,61 L-8,61 L-15,58 L-16,55 L-1,51 L5,46 L10,37 L11,33 L11,19 L5,7 L3,3 L1,3 Z " fill="#9E422F" transform="translate(566,1075)"/>
<path d="M0,0 L3,1 L3,56 L6,61 L6,63 L-10,63 L-9,59 L-8,58 L-8,7 L-11,1 Z " fill="#161515" transform="translate(2244,913)"/>
<path d="M0,0 L2,1 L3,3 L-5,28 L-11,46 L-15,56 L-19,58 L-17,49 L-13,40 L-10,30 L-6,17 L-3,10 Z " fill="#983838" transform="translate(2413,248)"/>
<path d="M0,0 L2,1 L0,4 L-1,11 L5,15 L6,19 L3,22 L-3,22 L-7,18 L-8,12 L-5,4 Z " fill="#1F1F1F" transform="translate(1925,924)"/>
<path d="M0,0 L5,2 L16,9 L41,20 L58,26 L56,30 L36,22 L16,12 L0,2 Z " fill="#C9756E" transform="translate(1045,692)"/>
<path d="M0,0 L6,2 L7,3 L7,10 L4,12 L-2,12 L-5,7 L-3,2 Z " fill="#1D1D1C" transform="translate(2240,892)"/>
<path d="M0,0 L7,0 L9,2 L9,8 L6,11 L0,11 L-3,8 L-2,2 Z " fill="#1E1D1D" transform="translate(1155,893)"/>
<path d="M0,0 L65,0 L65,2 L61,3 L60,2 L20,2 L1,1 L0,3 Z " fill="#424242" transform="translate(1032,1042)"/>
<path d="M0,0 L4,1 L4,10 L0,11 L-1,9 L-1,1 Z " fill="#444641" transform="translate(2421,902)"/>
<path d="M0,0 Z " fill="#FFFFFF" transform="translate(1155,1192)"/>
<path d="M0,0 Z " fill="#FFFFFF" transform="translate(1154,1191)"/>
</svg>
